<svg xmlns="http://www.w3.org/2000/svg" viewBox="0 0 512 512"><defs><linearGradient id="a" x1="256" y1="512" x2="256" gradientUnits="userSpaceOnUse"><stop offset="0" stop-color="#0000dc"/><stop offset="1" stop-color="#00f"/></linearGradient></defs><circle cx="256" cy="256" r="256" fill="url(#a)"/><path d="M153.5 266.41l-5.77 32.22H80.42a99.66 99.66 0 009.9-30.06l9.53-56.88a100.7 100.7 0 001.44-16.38 71.66 71.66 0 00-1.26-13.68h31.32a119.97 119.97 0 00-8.82 30.06L113 268.57a185.24 185.24 0 00-2.52 22.14h2.7c16.56 0 29.88-8.64 40.32-24.3zM166.45 273.43l5.22-31.14c.72-5.04 1.8-11.16 1.8-15.84a31.78 31.78 0 00-1.44-10.08 224.66 224.66 0 0027.9-10.08l-11.16 67.32a76.28 76.28 0 00-1.62 13.5 62.4 62.4 0 001.44 11.52h-30.42c5.4-10.44 6.66-15.48 8.28-25.2zm10.62-85.32a17.25 17.25 0 0117.28-17.1c7.92 0 12.78 5.04 12.78 12.06 0 9.18-7.74 16.92-17.46 16.92-7.92 0-12.6-5.22-12.6-11.88zM298.93 189.55l-8.1 26.46c-1.8-5.94-5.76-8.82-9.9-8.82-3.42 0-6.84 1.62-9.54 6.3a24.6 24.6 0 018.46 18.9c0 21.42-20.16 38.88-42.3 38.88a38.54 38.54 0 01-10.44-1.44c-3.96 2.7-7.02 5.76-7.02 9.18 0 2.88 3.6 3.24 9.54 3.24h18.72c14.22 0 23.94 2.52 23.94 13.86 0 22.68-25.02 39.06-50.58 39.06-10.62 0-21.78-2.16-31.5-9l14.94-19.8c10.26 12.42 22.68 15.48 34.2 15.48 10.26 0 17.82-3.24 17.82-11.34 0-4.86-2.7-7.92-14.58-7.92h-19.62c-13.68 0-21.78-2.52-21.78-10.26 0-9.54 10.08-18.72 19.8-25.02a24.1 24.1 0 01-12.42-21.6c0-21.24 19.8-39.06 42.3-39.06a32.28 32.28 0 0116.56 4.14c8.1-18.18 16.38-22.68 25.2-22.68a12.54 12.54 0 016.3 1.44zm-42.12 41.76c0-9.18-2.52-17.1-9.72-17.1-10.98 0-15.3 19.44-15.3 32.58 0 9 2.34 16.74 10.08 16.74 10.44 0 14.94-18.9 14.94-32.22zM365.35 223.93a41.76 41.76 0 01-.72 7.92l-6.12 36.72a94.8 94.8 0 00-1.62 16.38 73 73 0 001.26 13.68h-24.66a185.12 185.12 0 012.7-29.52l5.76-33.84a31.09 31.09 0 00.36-5.4c0-6.12-2.34-8.64-7.74-8.64-3.6 0-8.64 1.62-14.22 7.02l-7.38 44.1a92.12 92.12 0 00-1.62 14.94 52.93 52.93 0 001.44 11.34H282c5.4-9.54 7.02-16.2 8.64-26.28l10.98-64.44a107.87 107.87 0 001.98-17.81 35.14 35.14 0 00-1.26-9.72 173.5 173.5 0 0027.9-10.08l-9 52.91c7.92-11.52 18.36-16.74 28.08-16.74 10.26 0 16.02 5.76 16.02 17.46zM399.9 268.4a51.8 51.8 0 00-.53 5.93c0 4.14 1.26 8.46 7.2 8.46 3.96 0 7.74-1.8 11.88-4.68-1.8 12.06-13.5 22.5-27 22.5-9.18 0-15.66-4.86-15.66-16.92a42.62 42.62 0 01.72-7.74l10.44-61.56H376.5l1.98-6.3h9.36c.54-3.96 1.08-8.46 1.62-14.58A157.45 157.45 0 00414.49 182l-4.32 26.1h20.88l-2.16 6.3h-19.8z" fill="#fff"/><path d="M374.5 284.52l-74.06 38.37v6.07h74.06v59.25h-237v-59.25h74.06v-6.47l-74.06-37.97v-74.06L256 274.11l118.5-63.65" fill="#fff" opacity=".2"/></svg>
